<?xml version="1.0" encoding="UTF-8" standalone="no"?>
<!DOCTYPE svg PUBLIC "-//W3C//DTD SVG 1.1//EN" "http://www.w3.org/Graphics/SVG/1.1/DTD/svg11.dtd">
<svg xmlns="http://www.w3.org/2000/svg" version="1.1" viewBox="0 0 65 57">
<path fill="#ffffff" d="
  M 20.53 10.80
  A 8.74 8.74 0.0 0 1 11.79 19.54
  A 8.74 8.74 0.0 0 1 3.05 10.80
  A 8.74 8.74 0.0 0 1 11.79 2.06
  A 8.74 8.74 0.0 0 1 20.53 10.80
  Z
  M 16.14 10.82
  A 4.33 4.33 0.0 0 0 11.81 6.49
  A 4.33 4.33 0.0 0 0 7.48 10.82
  A 4.33 4.33 0.0 0 0 11.81 15.15
  A 4.33 4.33 0.0 0 0 16.14 10.82
  Z"
/>
<path fill="#ffffff" d="
  M 39.81 10.81
  A 8.74 8.74 0.0 0 1 31.07 19.55
  A 8.74 8.74 0.0 0 1 22.33 10.81
  A 8.74 8.74 0.0 0 1 31.07 2.07
  A 8.74 8.74 0.0 0 1 39.81 10.81
  Z
  M 35.41 10.83
  A 4.34 4.34 0.0 0 0 31.07 6.49
  A 4.34 4.34 0.0 0 0 26.73 10.83
  A 4.34 4.34 0.0 0 0 31.07 15.17
  A 4.34 4.34 0.0 0 0 35.41 10.83
  Z"
/>
<rect fill="#ffffff" x="-17.62" y="-16.13" transform="translate(20.63,37.36) rotate(0.1)" width="35.24" height="32.26" rx="3.81"/>
<path fill="#ffffff" d="
  M 44.25 44.52
  Q 45.00 38.31 44.08 31.48
  Q 49.78 26.72 56.56 23.70
  C 59.06 22.59 61.75 23.01 61.75 26.25
  Q 61.75 36.93 61.75 47.61
  C 61.75 50.39 60.91 52.99 57.50 51.75
  C 51.75 49.66 45.00 48.12 44.25 44.52
  Z"
/>
<rect fill="#ffffff" x="39.99" y="24.50" width="2.76" height="26.00" rx="1.07"/>
</svg>
